<svg width="52" height="37" viewBox="0 0 52 37" fill="none" xmlns="http://www.w3.org/2000/svg">
<path d="M3.28605 17.6869L14.4488 7.56593L20.5512 16.1985L32.1605 2.6543L48.9791 34.6543H1.5" stroke="white" stroke-width="3" stroke-linecap="round"/>
<path d="M11.27 27.6293C11.27 28.3043 11.205 28.8993 11.075 29.4143C10.95 29.9243 10.76 30.3443 10.505 30.6743C10.275 30.9793 9.995 31.2118 9.665 31.3718C9.335 31.5318 8.955 31.6118 8.525 31.6118C8.1 31.6118 7.725 31.5243 7.4 31.3493C7.075 31.1743 6.805 30.9193 6.59 30.5843C6.37 30.2543 6.205 29.8418 6.095 29.3468C5.985 28.8468 5.93 28.2743 5.93 27.6293V26.8193H5.1875V31.4543H3.5225V20.5343H5.1875V25.4018H5.93V24.3668C5.93 23.6668 5.995 23.0568 6.125 22.5368C6.255 22.0118 6.445 21.5818 6.695 21.2468C6.91 20.9618 7.17 20.7468 7.475 20.6018C7.78 20.4518 8.13 20.3768 8.525 20.3768C8.92 20.3768 9.2725 20.4468 9.5825 20.5868C9.8975 20.7218 10.1675 20.9218 10.3925 21.1868C10.6775 21.5168 10.895 21.9493 11.045 22.4843C11.195 23.0143 11.27 23.6418 11.27 24.3668V27.6293ZM9.5675 24.2093C9.5675 23.7693 9.5475 23.3943 9.5075 23.0843C9.4675 22.7693 9.4 22.5168 9.305 22.3268C9.225 22.1668 9.12 22.0493 8.99 21.9743C8.86 21.8943 8.705 21.8543 8.525 21.8543C8.35 21.8543 8.2025 21.8993 8.0825 21.9893C7.9675 22.0793 7.8725 22.2193 7.7975 22.4093C7.7225 22.5993 7.67 22.8443 7.64 23.1443C7.61 23.4393 7.595 23.7943 7.595 24.2093V27.7718C7.595 28.1918 7.61 28.5518 7.64 28.8518C7.67 29.1518 7.7225 29.3968 7.7975 29.5868C7.8725 29.7768 7.9675 29.9168 8.0825 30.0068C8.2025 30.0968 8.35 30.1418 8.525 30.1418C8.725 30.1418 8.89 30.0968 9.02 30.0068C9.155 29.9168 9.2625 29.7768 9.3425 29.5868C9.4225 29.3968 9.48 29.1518 9.515 28.8518C9.55 28.5518 9.5675 28.1918 9.5675 27.7718V24.2093Z" fill="white"/>
<path d="M15.0575 27.2918V31.4543H13.2575V20.5343H16.91C17.46 20.5393 17.965 20.6218 18.425 20.7818C18.89 20.9418 19.29 21.1693 19.625 21.4643C19.96 21.7593 20.22 22.1168 20.405 22.5368C20.59 22.9568 20.6825 23.4293 20.6825 23.9543C20.6825 24.4593 20.59 24.9168 20.405 25.3268C20.22 25.7318 19.96 26.0793 19.625 26.3693C19.29 26.6643 18.89 26.8918 18.425 27.0518C17.965 27.2118 17.46 27.2918 16.91 27.2918H15.0575ZM15.0575 25.8218H16.91C17.215 25.8168 17.4875 25.7693 17.7275 25.6793C17.9725 25.5843 18.18 25.4543 18.35 25.2893C18.52 25.1243 18.6475 24.9293 18.7325 24.7043C18.8225 24.4793 18.8675 24.2343 18.8675 23.9693C18.8675 23.6793 18.8225 23.4168 18.7325 23.1818C18.6475 22.9418 18.52 22.7343 18.35 22.5593C18.18 22.3843 17.9725 22.2493 17.7275 22.1543C17.4875 22.0593 17.215 22.0093 16.91 22.0043H15.0575V25.8218Z" fill="white"/>
<path d="M24.485 20.5343L25.835 25.2068L27.3275 20.5343H29.57V31.4543H27.875V27.7493L27.98 22.8743L26.3 28.0868H25.3625L23.84 23.0543L23.9375 27.7493V31.4543H22.25V20.5343H24.485Z" fill="white"/>
<path d="M36.875 28.9418H33.4475L32.705 31.4543H30.83L34.385 20.5343H35.9825L39.4775 31.4543H37.61L36.875 28.9418ZM33.905 27.3968H36.4325L35.18 23.0768L33.905 27.3968Z" fill="white"/>
</svg>
