<svg width="201" height="75" viewBox="0 0 201 75" fill="none" xmlns="http://www.w3.org/2000/svg">
<g clip-path="url(#clip0_286_1501)">
<path d="M160.201 0.187012L151.282 51.6023H140.226L145.22 20.9417L136.096 32.8902H126.698L121.492 19.1086L115.501 51.6023H104.445L113.365 0.187012H123.133L132.327 23.882L149.539 0.187012H160.201Z" fill="white"/>
<path d="M151.377 51.6995H140.109L140.125 51.5873L145.048 21.3382L136.152 32.9949H126.62L126.596 32.9276L121.532 19.4976L115.596 51.707H104.328L104.352 51.5873L113.279 0.0897217H123.212L123.235 0.157058L132.359 23.6725L149.484 0.0897217H160.328L160.304 0.209431L151.369 51.707L151.377 51.6995ZM140.353 51.505H151.196L160.084 0.291732H149.594L132.296 24.099L132.226 23.9194L123.063 0.291732H113.46L104.572 51.505H115.415L121.461 18.7195L126.777 32.7929H136.05L145.393 20.5451L145.323 20.9566L140.353 51.505Z" fill="white"/>
<path d="M26.1382 0.187012L22.0317 20.9417H14.9964L19.0951 0.187012H9.04472L0.125 51.6023H10.1518L13.5046 32.7406H20.5477L17.195 51.6023H53.7768L62.5788 0.187012H26.1382ZM46.3882 42.6615H27.9442L33.7781 9.03804H52.2221L46.3882 42.6615Z" fill="white"/>
<path d="M53.8638 51.6995H17.07L17.0935 51.5798L20.4227 32.8378H13.5916L10.2388 51.6995H0L0.0235556 51.5798L8.95898 0.0897217H19.2214L19.1978 0.209431L15.1227 20.8444H21.946L26.0446 0.0897217H62.6972L62.6736 0.209431L53.856 51.707L53.8638 51.6995ZM17.3212 51.4975H53.6832L62.4538 0.291732H26.2252L22.1187 21.0464H14.8714L14.895 20.9267L18.9701 0.291732H9.13958L0.25126 51.505H10.0661L13.4188 32.6433H20.674L20.6504 32.763L17.3212 51.505V51.4975ZM46.4831 42.7587H27.8192L27.8427 42.639L33.6924 8.93327H52.3563L52.3327 9.05298L46.4831 42.7587ZM28.0704 42.5642H46.3025L52.105 9.14276H33.873L28.0704 42.5642Z" fill="white"/>
<path d="M66.1924 0.09729L64.677 9.0381H71.3197L63.6562 51.4976H73.6281L77.1929 32.7331H103.842L110.029 0.09729H66.1924ZM95.2208 23.7998H79.0773L81.637 9.04559H97.7805L95.2208 23.7998Z" fill="white"/>
<path d="M73.7151 51.6173H63.5312L63.5548 51.4901L71.1947 9.13534H64.552L66.0988 0H110.156L110.132 0.11971L103.937 32.8453H77.2877L73.723 51.6173H73.7151ZM63.7825 51.4003H73.5345L77.0993 32.6358H103.749L109.904 0.20201H66.2794L64.7954 8.94081H71.4381L71.4145 9.04556L63.7747 51.4003H63.7825ZM95.3156 23.897H78.9602L78.9837 23.7773L81.5591 8.93333H97.9146L97.891 9.05304L95.3156 23.897ZM79.2114 23.695H95.135L97.6633 9.13534H81.7397L79.2114 23.695Z" fill="white"/>
<path d="M164.447 0.187012L155.527 51.6023H165.436L169.001 32.7406H185.953L182.389 51.6023L192.18 51.5125L200.872 0.187012H164.439H164.447ZM173.163 9.03804H189.997L187.461 23.7997H170.524L173.163 9.03804Z" fill="white"/>
<path d="M155.395 51.707L155.418 51.5873L164.354 0.0897217H200.998L192.259 51.6172L182.256 51.707L182.279 51.5873L185.821 32.8453H169.088L165.523 51.707H155.402H155.395ZM164.534 0.291732L155.646 51.505H165.343L168.908 32.6433H186.072L186.048 32.763L182.507 51.505L192.078 51.4152L200.747 0.291732H164.526H164.534ZM187.556 23.897H170.407L170.431 23.7773L173.085 8.93327H190.131L190.108 9.05298L187.564 23.897H187.556ZM170.651 23.695H187.375L189.872 9.13528H173.258L170.659 23.695H170.651Z" fill="white"/>
<path d="M1.07422 71.4817V61.7253H3.47689V65.7281L6.50771 61.7253H9.27157L6.16223 65.7281L9.67202 71.4817H6.82964L4.5683 67.7707L3.47689 69.1324V71.4817H1.07422Z" fill="white"/>
<path d="M11.7368 61.7253H18.5444V71.4817H16.1417V64.0896H13.9903C13.9903 65.3765 13.9511 66.4614 13.8647 67.3442C13.7783 68.2271 13.6684 68.9528 13.5192 69.514C13.37 70.0751 13.1659 70.5016 12.8989 70.8083C12.632 71.1151 12.3493 71.3171 12.0431 71.4293C11.7368 71.5415 11.3599 71.5939 10.9045 71.5939C10.4491 71.5939 10.0644 71.5415 9.6875 71.4293L9.84454 69.1922C10.033 69.2296 10.2057 69.2446 10.3471 69.2446C10.5983 69.2446 10.8025 69.1773 10.9517 69.0351C11.1008 68.893 11.2422 68.5787 11.3678 68.0849C11.5013 67.5911 11.5955 66.8354 11.6426 65.8104C11.6976 64.7854 11.7211 63.4237 11.7211 61.7253H11.7368Z" fill="white"/>
<path d="M22.721 74.4444C21.9593 74.4444 21.2527 74.22 20.5853 73.771L21.394 71.7659C21.763 72.0203 22.1085 72.1475 22.4226 72.1475C22.7995 72.1475 23.0822 71.938 23.2627 71.5115L19.9414 61.7178H22.4854L24.417 68.3617L26.2622 61.7178H28.7591L25.5005 71.7135C25.1708 72.7236 24.8017 73.4269 24.3934 73.8309C23.9851 74.2349 23.4276 74.4369 22.721 74.4369V74.4444Z" fill="white"/>
<path d="M34.3738 71.6986C32.9369 71.6986 31.8455 71.1973 31.0838 70.1947C30.3222 69.1922 29.9453 67.7557 29.9453 65.8702C29.9453 65.2043 29.9689 64.6133 30.0081 64.097C30.0474 63.5808 30.1416 63.0346 30.2829 62.451C30.4243 61.8674 30.6206 61.3736 30.8718 60.9547C31.1231 60.5432 31.4686 60.1691 31.9161 59.8473C32.3637 59.5181 32.8976 59.2862 33.5022 59.159L38.0406 58.1938L38.4175 60.3785L33.7692 61.4335C32.4815 61.7402 31.7984 62.5034 31.712 63.7304C31.9083 63.3264 32.2773 62.9598 32.8191 62.6081C33.353 62.264 34.0126 62.0919 34.7978 62.0919C35.897 62.0919 36.8393 62.5408 37.6244 63.4386C38.4175 64.3365 38.8101 65.4512 38.8101 66.7681C38.8101 68.0849 38.3861 69.3044 37.5459 70.2621C36.7058 71.2198 35.6458 71.6986 34.3659 71.6986H34.3738ZM34.4052 69.3119C35.0098 69.3119 35.4966 69.0725 35.8735 68.5936C36.2504 68.1148 36.4388 67.5162 36.4388 66.798C36.4388 66.0797 36.2425 65.4961 35.8499 64.9949C35.4573 64.4936 34.9627 64.2467 34.3738 64.2467C33.7849 64.2467 33.2824 64.4936 32.9055 64.9874C32.5286 65.4812 32.3401 66.0797 32.3401 66.798C32.3401 67.5162 32.5364 68.0998 32.929 68.5787C33.3216 69.065 33.8163 69.3044 34.4052 69.3044V69.3119Z" fill="white"/>
<path d="M47.6591 71.6611C46.8268 71.6611 46.1359 71.3918 45.5784 70.8606C45.0288 70.3294 44.7461 69.5887 44.7461 68.6385C44.7461 67.606 45.0523 66.8279 45.6726 66.3116C46.2851 65.7879 47.1174 65.526 48.1617 65.526C48.8683 65.526 49.5593 65.6607 50.2345 65.93V65.7654C50.2345 64.5758 49.63 63.9847 48.4208 63.9847C47.6905 63.9847 46.9132 64.1643 46.0809 64.516L45.4842 62.4061C46.5128 61.8824 47.612 61.6205 48.7741 61.6205C50.0461 61.6205 51.004 61.9871 51.6322 62.7128C52.2446 63.4161 52.5509 64.4561 52.5509 65.8253V71.489H50.2267V70.4341C49.5828 71.2571 48.727 71.6686 47.667 71.6686L47.6591 71.6611ZM48.3894 69.7533C48.9468 69.7533 49.4023 69.5961 49.7477 69.2744C50.0932 68.9527 50.266 68.5412 50.266 68.0474V67.5536C49.8105 67.3142 49.3002 67.187 48.7348 67.187C48.2088 67.187 47.8005 67.3067 47.5099 67.5386C47.2194 67.778 47.0781 68.1147 47.0781 68.5711C47.0781 68.9377 47.1959 69.222 47.4393 69.439C47.6827 69.6485 47.9968 69.7607 48.3894 69.7607V69.7533Z" fill="white"/>
<path d="M54.6172 71.4817V61.7253H57.0199V65.7281L60.0507 61.7253H62.8145L59.7052 65.7281L63.215 71.4817H60.3726L58.1113 67.7707L57.0199 69.1324V71.4817H54.6172Z" fill="white"/>
<path d="M70.8929 61.7253V64.0896H68.3803V71.4817H65.9462V64.0896H63.4336V61.7253H70.8929Z" fill="white"/>
<path d="M80.0864 61.7253V71.4817H77.7623V65.8029L74.4567 71.4817H72.1953V61.7253H74.5195V67.4265L77.8251 61.7253H80.0864Z" fill="white"/>
<path d="M82.2383 61.7253H86.8866C87.7503 61.7253 88.4413 61.9422 88.9516 62.3837C89.462 62.8176 89.7211 63.4162 89.7211 64.1643C89.7211 65.1819 89.2736 65.9151 88.3784 66.364C89.4856 66.7531 90.0352 67.5686 90.0352 68.8181C90.0352 69.6411 89.7525 70.292 89.1872 70.7633C88.6219 71.2347 87.8524 71.4741 86.8709 71.4741H82.2383V61.7178V61.7253ZM84.6095 65.6383H86.2977C86.6275 65.6383 86.8787 65.5485 87.0515 65.3689C87.2242 65.1894 87.3106 64.9499 87.3106 64.6581C87.3106 64.4038 87.2321 64.1943 87.0672 64.0222C86.9023 63.8501 86.6589 63.7678 86.3291 63.7678H84.6095V65.6457V65.6383ZM84.6095 69.3119H86.5097C87.2399 69.3119 87.6011 68.9827 87.6011 68.3317C87.6011 67.6808 87.2164 67.3815 86.4469 67.3815H84.6174V69.3119H84.6095Z" fill="white"/>
<path d="M99.4803 61.7253V71.4817H97.0776V67.7482H94.1253V71.4817H91.7227V61.7253H94.1253V65.4738H97.0776V61.7253H99.4803Z" fill="white"/>
<path d="M109.071 70.2246C108.191 71.2048 107.1 71.6986 105.789 71.6986C104.477 71.6986 103.394 71.2122 102.522 70.2321C101.651 69.252 101.219 68.0474 101.219 66.6184C101.219 65.1894 101.658 63.9997 102.538 63.0121C103.417 62.032 104.509 61.5382 105.82 61.5382C107.131 61.5382 108.215 62.0245 109.086 63.0047C109.958 63.9848 110.39 65.1894 110.39 66.6184C110.39 68.0474 109.95 69.237 109.071 70.2246ZM105.82 69.3119C106.487 69.3119 107.013 69.0575 107.414 68.5412C107.814 68.025 108.011 67.389 108.011 66.6184C108.011 65.8478 107.806 65.2417 107.39 64.718C106.974 64.1943 106.44 63.9249 105.789 63.9249C105.137 63.9249 104.595 64.1793 104.195 64.6956C103.794 65.2118 103.598 65.8478 103.598 66.6184C103.598 67.389 103.802 67.995 104.218 68.5188C104.634 69.0425 105.168 69.3119 105.82 69.3119Z" fill="white"/>
<path d="M118.304 64.0896H114.528V71.4817H112.125V61.7253H118.304V64.0896Z" fill="white"/>
<path d="M127.051 70.2246C126.172 71.2048 125.08 71.6986 123.769 71.6986C122.458 71.6986 121.374 71.2122 120.503 70.2321C119.631 69.252 119.199 68.0474 119.199 66.6184C119.199 65.1894 119.639 63.9997 120.518 63.0121C121.398 62.032 122.489 61.5382 123.8 61.5382C125.112 61.5382 126.195 62.0245 127.067 63.0047C127.938 63.9848 128.37 65.1894 128.37 66.6184C128.37 68.0474 127.93 69.237 127.051 70.2246ZM123.8 69.3119C124.468 69.3119 124.994 69.0575 125.394 68.5412C125.795 68.025 125.991 67.389 125.991 66.6184C125.991 65.8478 125.787 65.2417 125.371 64.718C124.955 64.1943 124.421 63.9249 123.769 63.9249C123.117 63.9249 122.576 64.1793 122.175 64.6956C121.775 65.2118 121.578 65.8478 121.578 66.6184C121.578 67.389 121.782 67.995 122.199 68.5188C122.615 69.0425 123.149 69.3119 123.8 69.3119Z" fill="white"/>
<path d="M142.282 70.2246C141.402 71.2048 140.311 71.6986 138.999 71.6986C137.688 71.6986 136.605 71.2122 135.733 70.2321C134.862 69.252 134.43 68.0474 134.43 66.6184C134.43 65.1894 134.869 63.9997 135.749 63.0121C136.628 62.032 137.72 61.5382 139.031 61.5382C140.342 61.5382 141.426 62.0245 142.297 63.0047C143.169 63.9848 143.601 65.1894 143.601 66.6184C143.601 68.0474 143.161 69.237 142.282 70.2246ZM139.039 69.3119C139.706 69.3119 140.232 69.0575 140.633 68.5412C141.033 68.025 141.229 67.389 141.229 66.6184C141.229 65.8478 141.025 65.2417 140.609 64.718C140.193 64.1943 139.659 63.9249 139.007 63.9249C138.356 63.9249 137.814 64.1793 137.413 64.6956C137.013 65.2118 136.817 65.8478 136.817 66.6184C136.817 67.389 137.021 67.995 137.437 68.5188C137.853 69.0425 138.387 69.3119 139.039 69.3119Z" fill="white"/>
<path d="M151.963 61.7253V64.0896H149.451V71.4817H147.017V64.0896H144.504V61.7253H151.963Z" fill="white"/>
<path d="M159.846 71.4817H154.538L154.366 73.7786H152.34V69.1174H153.259C153.808 67.7707 154.083 65.586 154.083 62.5633V61.7253H161.008V69.1174H162.163L161.88 73.7786H159.854V71.4817H159.846ZM155.708 69.1174H158.598V64.0971H156.336V64.3141C156.313 66.4165 156.109 68.0176 155.708 69.1174Z" fill="white"/>
<path d="M163.465 71.4817V61.7253H165.868V64.95H167.603C168.624 64.95 169.448 65.2194 170.06 65.7655C170.681 66.3117 170.987 67.1123 170.987 68.1672C170.987 69.2222 170.696 70.0078 170.123 70.5988C169.55 71.1899 168.749 71.4817 167.728 71.4817H163.465ZM167.375 67.0375H165.875V69.297H167.391C168.184 69.297 168.576 68.9079 168.576 68.1298C168.576 67.7931 168.474 67.5238 168.27 67.3292C168.066 67.1347 167.768 67.0375 167.375 67.0375ZM172.11 71.4817V61.7253H174.512V71.4817H172.11Z" fill="white"/>
<path d="M175.949 71.4817L178.917 66.5287L176.059 61.7253H178.635L180.213 64.5684L181.807 61.7253H184.319L181.461 66.4763L184.445 71.4817H181.87L180.166 68.444L178.462 71.4817H175.949Z" fill="white"/>
<path d="M188.296 71.6611C187.464 71.6611 186.773 71.3918 186.215 70.8606C185.665 70.3294 185.383 69.5887 185.383 68.6385C185.383 67.606 185.689 66.8279 186.309 66.3116C186.922 65.7879 187.754 65.526 188.798 65.526C189.505 65.526 190.196 65.6607 190.871 65.93V65.7654C190.871 64.5758 190.267 63.9847 189.057 63.9847C188.327 63.9847 187.55 64.1643 186.718 64.516L186.121 62.4061C187.149 61.8824 188.249 61.6205 189.411 61.6205C190.683 61.6205 191.641 61.9871 192.269 62.7128C192.881 63.4161 193.188 64.4561 193.188 65.8253V71.489H190.863V70.4341C190.22 71.2571 189.364 71.6686 188.304 71.6686L188.296 71.6611ZM189.026 69.7533C189.584 69.7533 190.039 69.5961 190.384 69.2744C190.73 68.9527 190.903 68.5412 190.903 68.0474V67.5536C190.447 67.3142 189.937 67.187 189.372 67.187C188.845 67.187 188.437 67.3067 188.147 67.5386C187.856 67.778 187.715 68.1147 187.715 68.5711C187.715 68.9377 187.833 69.222 188.076 69.439C188.319 69.6485 188.633 69.7607 189.026 69.7607V69.7533Z" fill="white"/>
</g>
<defs>
<clipPath id="clip0_286_1501">
<rect width="201" height="74.4444" fill="white"/>
</clipPath>
</defs>
</svg>
