<svg width="108" height="40" viewBox="0 0 108 40" fill="none" xmlns="http://www.w3.org/2000/svg">
<g clip-path="url(#clip0_277_5928)">
<path d="M86.0777 0.100464L81.285 27.7266H75.3447L78.028 11.2522L73.1256 17.6723H68.0755L65.2784 10.2673L62.0594 27.7266H56.1191L60.9118 0.100464H66.1602L71.1005 12.8321L80.3484 0.100464H86.0777Z" fill="white"/>
<path d="M81.3364 27.7789H75.2822L75.2907 27.7186L77.9359 11.4653L73.1559 17.7286H68.0341L68.0215 17.6924L65.3003 10.4764L62.1108 27.7829H56.0566L56.0693 27.7186L60.8662 0.0482178H66.2031L66.2158 0.0843987L71.1182 12.7196L80.3196 0.0482178H86.1459L86.1333 0.112539L81.3322 27.7829L81.3364 27.7789ZM75.413 27.6743H81.2393L86.0152 0.15676H80.3787L71.0844 12.9487L71.0464 12.8522L66.123 0.15676H60.9632L56.1874 27.6743H62.0138L65.2623 10.0583L68.1185 17.6201H73.1011L78.1216 11.0392L78.0836 11.2603L75.413 27.6743Z" fill="white"/>
<path d="M14.0456 0.100464L11.8391 11.2522H8.05898L10.2613 0.100464H4.86105L0.0683594 27.7266H5.45591L7.25739 17.5919H11.0418L9.24028 27.7266H28.8962L33.6256 0.100464H14.0456ZM24.9262 22.9226H15.016L18.1506 4.85624H28.0609L24.9262 22.9226Z" fill="white"/>
<path d="M28.9418 27.7789H9.17192L9.18458 27.7145L10.9734 17.6442H7.30294L5.50146 27.7789H0L0.0126567 27.7145L4.81378 0.0482178H10.3279L10.3152 0.112539L8.12563 11.2H11.7919L13.9941 0.0482178H33.688L33.6754 0.112539L28.9375 27.7829L28.9418 27.7789ZM9.30693 27.6703H28.8447L33.5572 0.15676H14.0912L11.8847 11.3085H7.99062L8.00328 11.2442L10.1929 0.15676H4.91082L0.135005 27.6743H5.40865L7.21013 17.5397H11.1084L11.0957 17.604L9.30693 27.6743V27.6703ZM24.976 22.9749H14.9476L14.9603 22.9105L18.1034 4.79998H28.1317L28.1191 4.8643L24.976 22.9749ZM15.0826 22.8703H24.8789L27.9967 4.91254H18.2004L15.0826 22.8703Z" fill="white"/>
<path d="M35.5658 0.0522461L34.7516 4.85627H38.3208L34.2031 27.6703H39.5611L41.4765 17.5879H55.7955L59.12 0.0522461H35.5658ZM51.1632 12.7879H42.4891L43.8644 4.86029H52.5385L51.1632 12.7879Z" fill="white"/>
<path d="M39.6067 27.7347H34.1348L34.1474 27.6663L38.2524 4.90854H34.6832L35.5143 0H59.1867L59.174 0.0643216L55.8453 17.6482H41.5263L39.6109 27.7347H39.6067ZM34.2698 27.6181H39.5097L41.425 17.5357H55.744L59.0517 0.108543H35.6114L34.814 4.80402H38.3832L38.3706 4.8603L34.2656 27.6181H34.2698ZM51.2129 12.8402H42.4249L42.4376 12.7759L43.8214 4.8H52.6094L52.5967 4.86432L51.2129 12.8402ZM42.5599 12.7317H51.1159L52.4744 4.90854H43.9184L42.5599 12.7317Z" fill="white"/>
<path d="M88.361 0.100464L83.5684 27.7266H88.8926L90.808 17.5919H99.9167L98.0013 27.7266L103.262 27.6784L107.933 0.100464H88.3568H88.361ZM93.044 4.85624H102.089L100.727 12.7879H91.6265L93.044 4.85624Z" fill="white"/>
<path d="M83.4961 27.7829L83.5087 27.7186L88.3099 0.0482178H108L103.304 27.7346L97.929 27.7829L97.9417 27.7186L99.8444 17.6482H90.8539L88.9385 27.7829H83.5003H83.4961ZM88.4069 0.15676L83.6311 27.6743H88.8415L90.7568 17.5397H99.9794L99.9667 17.604L98.064 27.6743L103.207 27.6261L107.865 0.15676H88.4027H88.4069ZM100.777 12.8402H91.5627L91.5753 12.7759L93.0013 4.79998H102.161L102.148 4.8643L100.781 12.8402H100.777ZM91.6934 12.7316H100.68L102.021 4.90852H93.0941L91.6977 12.7316H91.6934Z" fill="white"/>
<path d="M0.578125 38.408V33.1658H1.86911V35.3165L3.49761 33.1658H4.98267L3.31198 35.3165L5.19784 38.408H3.67059L2.45554 36.414L1.86911 37.1457V38.408H0.578125Z" fill="white"/>
<path d="M6.30817 33.1658H9.96597V38.408H8.67498V34.4361H7.519C7.519 35.1276 7.4979 35.7105 7.45149 36.1849C7.40509 36.6592 7.34602 37.0492 7.26586 37.3507C7.1857 37.6522 7.07601 37.8813 6.93257 38.0462C6.78912 38.211 6.63724 38.3195 6.47271 38.3798C6.30817 38.4401 6.10566 38.4683 5.86096 38.4683C5.61627 38.4683 5.40954 38.4401 5.20703 38.3798L5.29141 37.1778C5.39266 37.1979 5.48548 37.206 5.56142 37.206C5.69643 37.206 5.80612 37.1698 5.88628 37.0934C5.96644 37.017 6.04238 36.8482 6.10988 36.5829C6.1816 36.3175 6.23223 35.9115 6.25754 35.3607C6.28707 34.81 6.29973 34.0783 6.29973 33.1658H6.30817Z" fill="white"/>
<path d="M12.2103 39.9999C11.8011 39.9999 11.4214 39.8793 11.0627 39.6381L11.4973 38.5607C11.6956 38.6974 11.8812 38.7658 12.05 38.7658C12.2525 38.7658 12.4044 38.6532 12.5014 38.4241L10.7168 33.1617H12.0837L13.1216 36.7316L14.113 33.1617H15.4546L13.7038 38.5326C13.5266 39.0753 13.3283 39.4532 13.1089 39.6703C12.8895 39.8874 12.59 39.9959 12.2103 39.9959V39.9999Z" fill="white"/>
<path d="M18.4713 38.5246C17.6992 38.5246 17.1128 38.2552 16.7035 37.7166C16.2943 37.1779 16.0918 36.406 16.0918 35.3929C16.0918 35.0351 16.1045 34.7176 16.1255 34.4402C16.1466 34.1628 16.1973 33.8693 16.2732 33.5557C16.3492 33.2422 16.4546 32.9769 16.5896 32.7517C16.7246 32.5306 16.9103 32.3296 17.1507 32.1568C17.3912 31.9799 17.6781 31.8552 18.003 31.7869L20.4415 31.2683L20.644 32.4422L18.1464 33.009C17.4545 33.1738 17.0875 33.5839 17.0411 34.2432C17.1465 34.0261 17.3448 33.8291 17.6359 33.6402C17.9228 33.4552 18.2772 33.3628 18.6991 33.3628C19.2897 33.3628 19.796 33.604 20.2179 34.0864C20.644 34.5688 20.855 35.1678 20.855 35.8753C20.855 36.5829 20.6271 37.2382 20.1757 37.7527C19.7243 38.2673 19.1547 38.5246 18.467 38.5246H18.4713ZM18.4881 37.2422C18.813 37.2422 19.0746 37.1135 19.2771 36.8563C19.4796 36.599 19.5808 36.2774 19.5808 35.8914C19.5808 35.5055 19.4754 35.1919 19.2644 34.9226C19.0535 34.6532 18.7877 34.5206 18.4713 34.5206C18.1548 34.5206 17.8848 34.6532 17.6823 34.9186C17.4798 35.1839 17.3786 35.5055 17.3786 35.8914C17.3786 36.2774 17.484 36.5909 17.695 36.8482C17.9059 37.1095 18.1717 37.2382 18.4881 37.2382V37.2422Z" fill="white"/>
<path d="M25.6082 38.5045C25.161 38.5045 24.7897 38.3597 24.4902 38.0743C24.1948 37.7889 24.043 37.3909 24.043 36.8803C24.043 36.3256 24.2075 35.9075 24.5408 35.6301C24.8699 35.3487 25.3171 35.208 25.8782 35.208C26.2579 35.208 26.6292 35.2804 26.992 35.4251V35.3366C26.992 34.6974 26.6671 34.3798 26.0174 34.3798C25.6251 34.3798 25.2074 34.4763 24.7602 34.6653L24.4395 33.5316C24.9922 33.2502 25.5829 33.1095 26.2073 33.1095C26.8907 33.1095 27.4054 33.3065 27.743 33.6964C28.072 34.0743 28.2366 34.6331 28.2366 35.3688V38.412H26.9878V37.8452C26.6418 38.2874 26.182 38.5085 25.6124 38.5085L25.6082 38.5045ZM26.0005 37.4793C26.3001 37.4793 26.5448 37.3949 26.7304 37.2221C26.916 37.0492 27.0089 36.8281 27.0089 36.5628V36.2974C26.7642 36.1688 26.4899 36.1005 26.1862 36.1005C25.9035 36.1005 25.6841 36.1648 25.528 36.2894C25.3719 36.418 25.296 36.5989 25.296 36.8442C25.296 37.0412 25.3593 37.1939 25.4901 37.3105C25.6208 37.4231 25.7896 37.4834 26.0005 37.4834V37.4793Z" fill="white"/>
<path d="M29.3477 38.408V33.1658H30.6386V35.3165L32.2671 33.1658H33.7522L32.0815 35.3165L33.9674 38.408H32.4401L31.2251 36.414L30.6386 37.1457V38.408H29.3477Z" fill="white"/>
<path d="M38.092 33.1658V34.4361H36.7419V38.408H35.434V34.4361H34.084V33.1658H38.092Z" fill="white"/>
<path d="M43.033 33.1658V38.408H41.7842V35.3567L40.008 38.408H38.793V33.1658H40.0418V36.2291L41.8179 33.1658H43.033Z" fill="white"/>
<path d="M44.1895 33.1658H46.6871C47.1511 33.1658 47.5224 33.2823 47.7966 33.5195C48.0709 33.7527 48.2101 34.0743 48.2101 34.4763C48.2101 35.0231 47.9696 35.417 47.4886 35.6582C48.0835 35.8673 48.3788 36.3055 48.3788 36.9768C48.3788 37.419 48.227 37.7688 47.9232 38.022C47.6194 38.2753 47.206 38.404 46.6786 38.404H44.1895V33.1617V33.1658ZM45.4636 35.2683H46.3706C46.5478 35.2683 46.6828 35.22 46.7756 35.1236C46.8685 35.0271 46.9149 34.8984 46.9149 34.7416C46.9149 34.605 46.8727 34.4924 46.7841 34.3999C46.6955 34.3075 46.5647 34.2633 46.3875 34.2633H45.4636V35.2723V35.2683ZM45.4636 37.2421H46.4845C46.8769 37.2421 47.071 37.0653 47.071 36.7155C47.071 36.3658 46.8642 36.205 46.4508 36.205H45.4678V37.2421H45.4636Z" fill="white"/>
<path d="M53.4534 33.1658V38.408H52.1625V36.402H50.5761V38.408H49.2852V33.1658H50.5761V35.1798H52.1625V33.1658H53.4534Z" fill="white"/>
<path d="M58.6056 37.7326C58.1331 38.2593 57.5467 38.5246 56.8421 38.5246C56.1376 38.5246 55.5554 38.2633 55.0871 37.7367C54.6188 37.21 54.3867 36.5628 54.3867 35.795C54.3867 35.0271 54.623 34.3879 55.0955 33.8573C55.568 33.3306 56.1544 33.0653 56.859 33.0653C57.5636 33.0653 58.1458 33.3266 58.6141 33.8532C59.0824 34.3799 59.3144 35.0271 59.3144 35.795C59.3144 36.5628 59.0782 37.202 58.6056 37.7326ZM56.859 37.2422C57.2176 37.2422 57.5003 37.1055 57.7154 36.8281C57.9306 36.5507 58.0361 36.209 58.0361 35.795C58.0361 35.3809 57.9264 35.0553 57.7028 34.7739C57.4792 34.4924 57.1923 34.3477 56.8421 34.3477C56.492 34.3477 56.2008 34.4844 55.9857 34.7618C55.7705 35.0392 55.665 35.3809 55.665 35.795C55.665 36.209 55.7747 36.5347 55.9983 36.8161C56.2219 37.0975 56.5088 37.2422 56.859 37.2422Z" fill="white"/>
<path d="M63.5664 34.4361H61.5371V38.408H60.2461V33.1658H63.5664V34.4361Z" fill="white"/>
<path d="M68.2658 37.7326C67.7933 38.2593 67.2068 38.5246 66.5023 38.5246C65.7977 38.5246 65.2155 38.2633 64.7472 37.7367C64.2789 37.21 64.0469 36.5628 64.0469 35.795C64.0469 35.0271 64.2831 34.3879 64.7557 33.8573C65.2282 33.3306 65.8146 33.0653 66.5192 33.0653C67.2237 33.0653 67.8059 33.3266 68.2742 33.8532C68.7425 34.3799 68.9746 35.0271 68.9746 35.795C68.9746 36.5628 68.7383 37.202 68.2658 37.7326ZM66.5192 37.2422C66.8778 37.2422 67.1604 37.1055 67.3756 36.8281C67.5908 36.5507 67.6962 36.209 67.6962 35.795C67.6962 35.3809 67.5865 35.0553 67.3629 34.7739C67.1393 34.4924 66.8525 34.3477 66.5023 34.3477C66.1521 34.3477 65.861 34.4844 65.6458 34.7618C65.4307 35.0392 65.3252 35.3809 65.3252 35.795C65.3252 36.209 65.4349 36.5347 65.6585 36.8161C65.8821 37.0975 66.169 37.2422 66.5192 37.2422Z" fill="white"/>
<path d="M76.4513 37.7326C75.9788 38.2593 75.3924 38.5246 74.6878 38.5246C73.9833 38.5246 73.4011 38.2633 72.9328 37.7367C72.4645 37.21 72.2324 36.5628 72.2324 35.795C72.2324 35.0271 72.4687 34.3879 72.9412 33.8573C73.4137 33.3306 74.0001 33.0653 74.7047 33.0653C75.4093 33.0653 75.9915 33.3266 76.4598 33.8532C76.9281 34.3799 77.1601 35.0271 77.1601 35.795C77.1601 36.5628 76.9239 37.202 76.4513 37.7326ZM74.7089 37.2422C75.0675 37.2422 75.3502 37.1055 75.5654 36.8281C75.7805 36.5507 75.886 36.209 75.886 35.795C75.886 35.3809 75.7763 35.0553 75.5527 34.7739C75.3291 34.4924 75.0422 34.3477 74.692 34.3477C74.3419 34.3477 74.0508 34.4844 73.8356 34.7618C73.6204 35.0392 73.515 35.3809 73.515 35.795C73.515 36.209 73.6247 36.5347 73.8483 36.8161C74.0719 37.0975 74.3588 37.2422 74.7089 37.2422Z" fill="white"/>
<path d="M81.6525 33.1658V34.4361H80.3024V38.408H78.9946V34.4361H77.6445V33.1658H81.6525Z" fill="white"/>
<path d="M85.8888 38.408H83.0368L82.9439 39.6422H81.8555V37.1376H82.3491C82.6444 36.414 82.7921 35.2401 82.7921 33.616V33.1658H86.5131V37.1376H87.1333L86.9814 39.6422H85.893V38.408H85.8888ZM83.6654 37.1376H85.2179V34.4401H84.0029V34.5567C83.9902 35.6864 83.8805 36.5467 83.6654 37.1376Z" fill="white"/>
<path d="M87.834 38.408V33.1658H89.125V34.8984H90.0574C90.6058 34.8984 91.0488 35.0432 91.3779 35.3366C91.7112 35.6301 91.8757 36.0602 91.8757 36.6271C91.8757 37.1939 91.7196 37.616 91.4116 37.9336C91.1036 38.2512 90.6733 38.408 90.1249 38.408H87.834ZM89.935 36.02H89.1292V37.2341H89.9434C90.3696 37.2341 90.5805 37.0251 90.5805 36.607C90.5805 36.4261 90.5256 36.2813 90.416 36.1768C90.3063 36.0723 90.1459 36.02 89.935 36.02ZM92.479 38.408V33.1658H93.77V38.408H92.479Z" fill="white"/>
<path d="M94.541 38.408L96.1358 35.7467L94.6001 33.1658H95.9839L96.8319 34.6934L97.6883 33.1658H99.0384L97.5027 35.7185L99.1059 38.408H97.7221L96.8066 36.7758L95.8911 38.408H94.541Z" fill="white"/>
<path d="M101.175 38.5045C100.727 38.5045 100.356 38.3597 100.057 38.0743C99.7613 37.7889 99.6094 37.3909 99.6094 36.8803C99.6094 36.3256 99.7739 35.9075 100.107 35.6301C100.436 35.3487 100.883 35.208 101.445 35.208C101.824 35.208 102.196 35.2804 102.558 35.4251V35.3366C102.558 34.6974 102.234 34.3798 101.584 34.3798C101.191 34.3798 100.774 34.4763 100.327 34.6653L100.006 33.5316C100.559 33.2502 101.149 33.1095 101.774 33.1095C102.457 33.1095 102.972 33.3065 103.309 33.6964C103.638 34.0743 103.803 34.6331 103.803 35.3688V38.412H102.554V37.8452C102.208 38.2874 101.748 38.5085 101.179 38.5085L101.175 38.5045ZM101.567 37.4793C101.866 37.4793 102.111 37.3949 102.297 37.2221C102.482 37.0492 102.575 36.8281 102.575 36.5628V36.2974C102.331 36.1688 102.056 36.1005 101.753 36.1005C101.47 36.1005 101.251 36.1648 101.094 36.2894C100.938 36.418 100.862 36.5989 100.862 36.8442C100.862 37.0412 100.926 37.1939 101.056 37.3105C101.187 37.4231 101.356 37.4834 101.567 37.4834V37.4793Z" fill="white"/>
</g>
<defs>
<clipPath id="clip0_277_5928">
<rect width="108" height="40" fill="white"/>
</clipPath>
</defs>
</svg>
