<svg width="97" height="38" viewBox="0 0 97 38" fill="none" xmlns="http://www.w3.org/2000/svg">
<g clip-path="url(#clip0_277_3345)">
<path d="M77.281 0.144762L72.9814 26.32H67.6522L70.0594 10.7086L65.6613 16.7962H61.127L58.6214 9.77524L55.7335 26.32H50.4043L54.704 0.144762H59.4124L63.8408 12.2095L72.1411 0.144762H77.281Z" fill="white" stroke="black" stroke-width="0.25" stroke-miterlimit="10"/>
<path d="M73.023 26.3733H67.5916L67.5992 26.3162L69.9724 10.9143L65.684 16.8495H61.0891L61.0778 16.8152L58.6365 9.97714L55.7751 26.3771H50.3438L50.3551 26.3162L54.6623 0.0914285H59.4503L59.4616 0.125714L63.8597 12.099L72.1146 0.0914285H77.3416L77.3302 0.152381L73.023 26.3733ZM67.7128 26.2705H72.9397L77.2205 0.194286H72.1638L63.8256 12.3162L63.7916 12.2248L59.3784 0.194286H54.7494L50.4649 26.2705H55.6918L58.6062 9.57714L61.1686 16.7429H65.6386L70.1427 10.5067L70.1086 10.7162L67.7128 26.2705Z" fill="white" stroke="black" stroke-width="0.25" stroke-miterlimit="10"/>
<path d="M12.6529 0.144762L10.6733 10.7124H7.28205L9.26156 0.144762H4.41686L0.117188 26.32H4.95053L6.5667 16.7162H9.96177L8.34561 26.32H25.9796L30.2187 0.144762H12.6529ZM22.418 21.7676H13.5272L16.3394 4.64762H25.2302L22.418 21.7676Z" fill="white" stroke="black" stroke-width="0.25" stroke-miterlimit="10"/>
<path d="M26.0212 26.3733H8.28506L8.29642 26.3124L9.90122 16.7695H6.60834L4.99218 26.3733H0.0566406L0.0679954 26.3124L4.37145 0.0914285H9.31835L9.30699 0.152381L7.34262 10.659H10.6317L12.6112 0.0914285H30.2792L30.2679 0.152381L26.0174 26.3733H26.0212ZM8.40618 26.2705H25.9342L30.1619 0.194286H12.6983L10.7188 10.7619H7.22528L7.23664 10.701L9.19723 0.194286H4.45851L0.173973 26.2705H4.90513L6.52129 16.6667H10.0186L10.0072 16.7276L8.4024 26.2705H8.40618ZM22.4596 21.8209H13.4628L13.4742 21.76L16.294 4.59809H25.2907L25.2794 4.65905L22.4596 21.8209ZM13.5877 21.7181H22.3763L25.1734 4.70095H16.3848L13.5877 21.7181Z" fill="white" stroke="black" stroke-width="0.25" stroke-miterlimit="10"/>
<path d="M31.9628 0.0990475L31.2323 4.65143H34.4343L30.7402 26.2705H35.5471L37.2654 16.7162H50.1115L53.094 0.0990475H31.9628ZM45.9556 12.1638H38.1738L39.4077 4.65143H47.1895L45.9556 12.1638Z" fill="white" stroke="black" stroke-width="0.25" stroke-miterlimit="10"/>
<path d="M35.5887 26.3276H30.6797L30.691 26.2629L34.3738 4.69714H31.1717L31.9174 0.0457143H53.1546L53.1432 0.106667L50.1569 16.7695H37.3109L35.5925 26.3276H35.5887ZM30.8008 26.221H35.5017L37.22 16.6667H50.0661L53.0334 0.148571H32.0044L31.2891 4.59809H34.4911L34.4798 4.65143L30.797 26.2171L30.8008 26.221ZM46.0011 12.2171H38.1171L38.1284 12.1562L39.3699 4.59809H47.2539L47.2425 4.65905L46.0011 12.2171ZM38.2344 12.1143H45.9102L47.129 4.70095H39.4531L38.2344 12.1143Z" fill="white" stroke="black" stroke-width="0.25" stroke-miterlimit="10"/>
<path d="M79.3251 0.144762L75.0254 26.3238H79.802L81.5203 16.72H89.692L87.9736 26.3238L92.6934 26.2781L96.8871 0.144762H79.3251ZM83.5301 4.65143H91.645L90.4225 12.1676H82.2584L83.5301 4.65143Z" fill="white" stroke="black" stroke-width="0.25" stroke-miterlimit="10"/>
<path d="M74.9648 26.3733L74.9762 26.3124L79.2834 0.0914285H96.9477L92.7351 26.3276L87.9131 26.3733L87.9244 26.3124L89.6314 16.7695H81.5657L79.8474 26.3733H74.9686H74.9648ZM79.3705 0.194286L75.086 26.2705H79.7603L81.4787 16.6667H89.7525L89.7412 16.7276L88.0342 26.2705L92.648 26.2248L96.8266 0.194286H79.3667H79.3705ZM90.4641 12.2171H82.1978L82.2092 12.1562L83.4885 4.59809H91.7056L91.6942 4.65905L90.4679 12.2171H90.4641ZM82.319 12.1143H90.3808L91.5844 4.70095H83.5755L82.3227 12.1143H82.319Z" fill="white" stroke="black" stroke-width="0.25" stroke-miterlimit="10"/>
<path d="M0.576172 36.4419V31.4743H1.73436V33.5124L3.19534 31.4743H4.52763L3.0288 33.5124L4.72066 36.4419H3.35052L2.26046 34.5524L1.73436 35.2457V36.4419H0.576172Z" fill="white" stroke="black" stroke-width="0.25" stroke-miterlimit="10"/>
<path d="M5.71638 31.4743H8.99791V36.4419H7.83972V32.6781H6.80265C6.80265 33.3333 6.78373 33.8857 6.74209 34.3352C6.70046 34.7848 6.64747 35.1543 6.57556 35.44C6.50364 35.7257 6.40524 35.9429 6.27655 36.099C6.14786 36.2552 6.0116 36.3581 5.86399 36.4152C5.71638 36.4724 5.5347 36.499 5.31518 36.499C5.09565 36.499 4.91019 36.4724 4.72852 36.4152L4.80421 35.2762C4.89505 35.2952 4.97832 35.3029 5.04645 35.3029C5.16757 35.3029 5.26597 35.2686 5.33789 35.1962C5.4098 35.1238 5.47793 34.9638 5.53849 34.7124C5.60283 34.461 5.64825 34.0762 5.67096 33.5543C5.69746 33.0324 5.70881 32.339 5.70881 31.4743H5.71638Z" fill="white" stroke="black" stroke-width="0.25" stroke-miterlimit="10"/>
<path d="M11.0117 37.9543C10.6446 37.9543 10.304 37.84 9.98224 37.6114L10.3721 36.5905C10.55 36.72 10.7165 36.7848 10.8679 36.7848C11.0496 36.7848 11.1858 36.6781 11.2729 36.461L9.67188 31.4743H10.8982L11.8293 34.8571L12.7187 31.4743H13.9223L12.3516 36.5638C12.1926 37.0781 12.0147 37.4362 11.8179 37.6419C11.6211 37.8476 11.3524 37.9505 11.0117 37.9505V37.9543Z" fill="white" stroke="black" stroke-width="0.25" stroke-miterlimit="10"/>
<path d="M16.6249 36.5562C15.9323 36.5562 15.4062 36.301 15.039 35.7905C14.6719 35.28 14.4902 34.5486 14.4902 33.5886C14.4902 33.2495 14.5016 32.9486 14.5205 32.6857C14.5394 32.4229 14.5849 32.1448 14.653 31.8476C14.7211 31.5505 14.8157 31.299 14.9369 31.0857C15.058 30.8762 15.2245 30.6857 15.4403 30.5219C15.656 30.3543 15.9134 30.2362 16.2048 30.1714L18.3925 29.68L18.5742 30.7924L16.3335 31.3295C15.7128 31.4857 15.3835 31.8743 15.3418 32.499C15.4365 32.2933 15.6144 32.1067 15.8755 31.9276C16.1329 31.7524 16.4508 31.6648 16.8293 31.6648C17.3592 31.6648 17.8134 31.8933 18.1919 32.3505C18.5742 32.8076 18.7634 33.3752 18.7634 34.0457C18.7634 34.7162 18.559 35.3371 18.154 35.8248C17.7491 36.3124 17.2381 36.5562 16.6211 36.5562H16.6249ZM16.6401 35.341C16.9315 35.341 17.1662 35.219 17.3479 34.9752C17.5295 34.7314 17.6204 34.4267 17.6204 34.061C17.6204 33.6952 17.5257 33.3981 17.3365 33.1429C17.1473 32.8876 16.9088 32.7619 16.6249 32.7619C16.3411 32.7619 16.0988 32.8876 15.9172 33.139C15.7355 33.3905 15.6446 33.6952 15.6446 34.061C15.6446 34.4267 15.7393 34.7238 15.9285 34.9676C16.1178 35.2152 16.3562 35.3371 16.6401 35.3371V35.341Z" fill="white" stroke="black" stroke-width="0.25" stroke-miterlimit="10"/>
<path d="M23.0312 36.5371C22.63 36.5371 22.2969 36.4 22.0282 36.1295C21.7632 35.859 21.627 35.4819 21.627 34.9981C21.627 34.4724 21.7746 34.0762 22.0736 33.8133C22.3688 33.5467 22.77 33.4133 23.2734 33.4133C23.614 33.4133 23.9471 33.4819 24.2726 33.619V33.5352C24.2726 32.9295 23.9812 32.6286 23.3983 32.6286C23.0463 32.6286 22.6716 32.72 22.2704 32.899L21.9827 31.8248C22.4786 31.5581 23.0085 31.4248 23.5686 31.4248C24.1818 31.4248 24.6435 31.6114 24.9463 31.981C25.2416 32.339 25.3892 32.8686 25.3892 33.5657V36.4495H24.2688V35.9124C23.9585 36.3314 23.5459 36.541 23.0349 36.541L23.0312 36.5371ZM23.3832 35.5619C23.6519 35.5619 23.8714 35.4819 24.0379 35.3181C24.2045 35.1543 24.2878 34.9448 24.2878 34.6933V34.4419C24.0682 34.32 23.8222 34.2552 23.5497 34.2552C23.2961 34.2552 23.0993 34.3162 22.9592 34.4343C22.8192 34.5562 22.7511 34.7276 22.7511 34.96C22.7511 35.1467 22.8078 35.2914 22.9252 35.4019C23.0425 35.5086 23.1939 35.5657 23.3832 35.5657V35.5619Z" fill="white" stroke="black" stroke-width="0.25" stroke-miterlimit="10"/>
<path d="M26.3848 36.4419V31.4743H27.543V33.5124L29.0039 31.4743H30.3362L28.8374 33.5124L30.5293 36.4419H29.1591L28.0691 34.5524L27.543 35.2457V36.4419H26.3848Z" fill="white" stroke="black" stroke-width="0.25" stroke-miterlimit="10"/>
<path d="M34.2324 31.4743V32.6781H33.0212V36.4419H31.8479V32.6781H30.6367V31.4743H34.2324Z" fill="white" stroke="black" stroke-width="0.25" stroke-miterlimit="10"/>
<path d="M38.6632 31.4743V36.4419H37.5429V33.5505L35.9494 36.4419H34.8594V31.4743H35.9797V34.3771L37.5732 31.4743H38.6632Z" fill="white" stroke="black" stroke-width="0.25" stroke-miterlimit="10"/>
<path d="M39.7012 31.4743H41.9418C42.3582 31.4743 42.6913 31.5848 42.9373 31.8095C43.1833 32.0305 43.3082 32.3352 43.3082 32.7162C43.3082 33.2343 43.0925 33.6076 42.661 33.8362C43.1947 34.0343 43.4596 34.4495 43.4596 35.0857C43.4596 35.5048 43.3233 35.8362 43.0508 36.0762C42.7783 36.3162 42.4074 36.4381 41.9343 36.4381H39.7012V31.4705V31.4743ZM40.8442 33.4667H41.658C41.8169 33.4667 41.9381 33.421 42.0213 33.3295C42.1046 33.2381 42.1462 33.1162 42.1462 32.9676C42.1462 32.8381 42.1084 32.7314 42.0289 32.6438C41.9494 32.5562 41.8321 32.5143 41.6731 32.5143H40.8442V33.4705V33.4667ZM40.8442 35.341H41.7602C42.1122 35.341 42.2863 35.1733 42.2863 34.8419C42.2863 34.5105 42.1008 34.3581 41.7299 34.3581H40.848V35.341H40.8442Z" fill="white" stroke="black" stroke-width="0.25" stroke-miterlimit="10"/>
<path d="M48.0129 31.4743V36.4419H46.8548V34.541H45.4316V36.4419H44.2734V31.4743H45.4316V33.3829H46.8548V31.4743H48.0129Z" fill="white" stroke="black" stroke-width="0.25" stroke-miterlimit="10"/>
<path d="M52.6306 35.8057C52.2067 36.3048 51.6806 36.5562 51.0485 36.5562C50.4164 36.5562 49.8941 36.3086 49.474 35.8095C49.0539 35.3105 48.8457 34.6971 48.8457 33.9695C48.8457 33.2419 49.0577 32.6362 49.4816 32.1333C49.9055 31.6343 50.4316 31.3829 51.0637 31.3829C51.6958 31.3829 52.2181 31.6305 52.6382 32.1295C53.0583 32.6286 53.2665 33.2419 53.2665 33.9695C53.2665 34.6971 53.0545 35.3029 52.6306 35.8057ZM51.0675 35.3409C51.3892 35.3409 51.6428 35.2114 51.8358 34.9486C52.0288 34.6857 52.1234 34.3619 52.1234 33.9695C52.1234 33.5771 52.025 33.2686 51.8244 33.0019C51.6238 32.7352 51.3665 32.5981 51.0523 32.5981C50.7382 32.5981 50.477 32.7276 50.284 32.9905C50.0909 33.2533 49.9963 33.5771 49.9963 33.9695C49.9963 34.3619 50.0947 34.6705 50.2953 34.9371C50.4959 35.2038 50.7533 35.3409 51.0675 35.3409Z" fill="white" stroke="black" stroke-width="0.25" stroke-miterlimit="10"/>
<path d="M57.0842 32.6819H55.2637V36.4457H54.1055V31.4781H57.0842V32.6819Z" fill="white" stroke="black" stroke-width="0.25" stroke-miterlimit="10"/>
<path d="M61.3005 35.8057C60.8766 36.3048 60.3505 36.5562 59.7184 36.5562C59.0864 36.5562 58.564 36.3086 58.1439 35.8095C57.7238 35.3105 57.5156 34.6971 57.5156 33.9695C57.5156 33.2419 57.7276 32.6362 58.1515 32.1333C58.5754 31.6343 59.1015 31.3829 59.7336 31.3829C60.3657 31.3829 60.888 31.6305 61.3081 32.1295C61.7282 32.6286 61.9364 33.2419 61.9364 33.9695C61.9364 34.6971 61.7245 35.3029 61.3005 35.8057ZM59.7336 35.3409C60.0553 35.3409 60.3089 35.2114 60.5019 34.9486C60.695 34.6857 60.7896 34.3619 60.7896 33.9695C60.7896 33.5771 60.6912 33.2686 60.4906 33.0019C60.29 32.7352 60.0326 32.5981 59.7184 32.5981C59.4043 32.5981 59.1431 32.7276 58.9501 32.9905C58.7571 33.2533 58.6625 33.5771 58.6625 33.9695C58.6625 34.3619 58.7609 34.6705 58.9615 34.9371C59.1621 35.2038 59.4194 35.3409 59.7336 35.3409Z" fill="white" stroke="black" stroke-width="0.25" stroke-miterlimit="10"/>
<path d="M68.6443 35.8057C68.2204 36.3048 67.6943 36.5562 67.0622 36.5562C66.4301 36.5562 65.9078 36.3086 65.4877 35.8095C65.0675 35.3105 64.8594 34.6971 64.8594 33.9695C64.8594 33.2419 65.0713 32.6362 65.4952 32.1333C65.9192 31.6343 66.4453 31.3829 67.0773 31.3829C67.7094 31.3829 68.2317 31.6305 68.6519 32.1295C69.072 32.6286 69.2802 33.2419 69.2802 33.9695C69.2802 34.6971 69.0682 35.3029 68.6443 35.8057ZM67.0773 35.3409C67.3991 35.3409 67.6526 35.2114 67.8457 34.9486C68.0387 34.6857 68.1333 34.3619 68.1333 33.9695C68.1333 33.5771 68.0349 33.2686 67.8343 33.0019C67.6337 32.7352 67.3763 32.5981 67.0622 32.5981C66.748 32.5981 66.4869 32.7276 66.2939 32.9905C66.1008 33.2533 66.0062 33.5771 66.0062 33.9695C66.0062 34.3619 66.1046 34.6705 66.3052 34.9371C66.5058 35.2038 66.7632 35.3409 67.0773 35.3409Z" fill="white" stroke="black" stroke-width="0.25" stroke-miterlimit="10"/>
<path d="M73.3105 31.4743V32.6781H72.0993V36.4419H70.926V32.6781H69.7148V31.4743H73.3105Z" fill="white" stroke="black" stroke-width="0.25" stroke-miterlimit="10"/>
<path d="M77.1106 36.4419H74.552L74.4687 37.6114H73.4922V35.2381H73.935C74.2 34.5524 74.3324 33.44 74.3324 31.9009V31.4743H77.6707V35.2381H78.2271L78.0909 37.6114H77.1144V36.4419H77.1106ZM75.1159 35.2381H76.5088V32.6819H75.4187V32.7924C75.4074 33.8629 75.309 34.6781 75.1159 35.2381Z" fill="white" stroke="black" stroke-width="0.25" stroke-miterlimit="10"/>
<path d="M78.8555 36.4419V31.4743H80.0137V33.1162H80.8501C81.3422 33.1162 81.7396 33.2533 82.0348 33.5314C82.3338 33.8095 82.4814 34.2171 82.4814 34.7543C82.4814 35.2914 82.3414 35.6914 82.0651 35.9924C81.7888 36.2933 81.4027 36.4419 80.9107 36.4419H78.8555ZM80.7366 34.1829H80.0137V35.3333H80.7441C81.1264 35.3333 81.3157 35.1352 81.3157 34.739C81.3157 34.5676 81.2665 34.4305 81.1681 34.3314C81.0696 34.2324 80.9258 34.1829 80.7366 34.1829ZM83.0227 36.4419V31.4743H84.1809V36.4419H83.0227Z" fill="white" stroke="black" stroke-width="0.25" stroke-miterlimit="10"/>
<path d="M84.873 36.4419L86.3037 33.92L84.926 31.4743H86.1675L86.9283 32.9219L87.6966 31.4743H88.9078L87.5301 33.8933L88.9683 36.4419H87.7269L86.9055 34.8952L86.0842 36.4419H84.873Z" fill="white" stroke="black" stroke-width="0.25" stroke-miterlimit="10"/>
<path d="M90.8241 36.5371C90.4229 36.5371 90.0899 36.4 89.8211 36.1295C89.5562 35.859 89.4199 35.4819 89.4199 34.9981C89.4199 34.4724 89.5675 34.0762 89.8665 33.8133C90.1618 33.5467 90.563 33.4133 91.0664 33.4133C91.407 33.4133 91.7401 33.4819 92.0656 33.619V33.5352C92.0656 32.9295 91.7741 32.6286 91.1913 32.6286C90.8393 32.6286 90.4646 32.72 90.0634 32.899L89.7757 31.8248C90.2715 31.5581 90.8014 31.4248 91.3616 31.4248C91.9747 31.4248 92.4365 31.6114 92.7393 31.981C93.0345 32.339 93.1821 32.8686 93.1821 33.5657V36.4495H92.0618V35.9124C91.7514 36.3314 91.3389 36.541 90.8279 36.541L90.8241 36.5371ZM91.1761 35.5619C91.4449 35.5619 91.6644 35.4819 91.8309 35.3181C91.9975 35.1543 92.0807 34.9448 92.0807 34.6933V34.4419C91.8612 34.32 91.6152 34.2552 91.3427 34.2552C91.0891 34.2552 90.8923 34.3162 90.7522 34.4343C90.6122 34.5562 90.544 34.7276 90.544 34.96C90.544 35.1467 90.6008 35.2914 90.7181 35.4019C90.8355 35.5086 90.9869 35.5657 91.1761 35.5657V35.5619Z" fill="white" stroke="black" stroke-width="0.25" stroke-miterlimit="10"/>
</g>
<defs>
<clipPath id="clip0_277_3345">
<rect width="97" height="38" fill="white"/>
</clipPath>
</defs>
</svg>
