<svg width="170" height="130" viewBox="0 0 170 130" fill="none" xmlns="http://www.w3.org/2000/svg">
<path d="M0 129.084V90.7315C0 79.8414 2.13068 68.7145 6.39204 57.3508C10.6534 45.9872 16.276 35.2746 23.2599 25.2131C30.2438 15.1515 37.8196 6.74715 45.9872 0L79.3679 19.7088C72.7391 30.1255 67.294 41.0156 63.0327 52.3792C58.8897 63.7429 56.8182 76.4086 56.8182 90.3764V129.084H0ZM89.6662 129.084V90.7315C89.6662 79.8414 91.7969 68.7145 96.0582 57.3508C100.32 45.9872 105.942 35.2746 112.926 25.2131C119.91 15.1515 127.486 6.74715 135.653 0L169.034 19.7088C162.405 30.1255 156.96 41.0156 152.699 52.3792C148.556 63.7429 146.484 76.4086 146.484 90.3764V129.084H89.6662Z" fill="black" fill-opacity="0.05"/>
</svg>
